<svg width="100" height="100" viewBox="0 0 100 100" fill="none" xmlns="http://www.w3.org/2000/svg">
<path d="M84.375 43.75V25" stroke="white" stroke-width="5" stroke-linecap="round" stroke-linejoin="round"/>
<path d="M93.75 34.375H75" stroke="white" stroke-width="5" stroke-linecap="round" stroke-linejoin="round"/>
<path d="M65.625 9.375V21.875" stroke="white" stroke-width="5" stroke-linecap="round" stroke-linejoin="round"/>
<path d="M71.875 15.625H59.375" stroke="white" stroke-width="5" stroke-linecap="round" stroke-linejoin="round"/>
<path d="M84.648 59.6093C78.5125 61.3298 72.0297 61.3862 65.8653 59.7727C59.7009 58.1592 54.077 54.9339 49.5713 50.4282C45.0655 45.9224 41.8403 40.2986 40.2268 34.1342C38.6133 27.9697 38.6697 21.4869 40.3902 15.3515C34.3412 17.0351 28.8389 20.2742 24.4313 24.7462C20.0238 29.2181 16.8648 34.7668 15.269 40.8395C13.6732 46.9122 13.6964 53.2971 15.3361 59.3581C16.9759 65.4191 20.175 70.9447 24.6149 75.3846C29.0547 79.8245 34.5804 83.0236 40.6414 84.6633C46.7024 86.3031 53.0872 86.3262 59.16 84.7304C65.2327 83.1347 70.7814 79.9757 75.2533 75.5681C79.7252 71.1606 82.9643 65.6583 84.648 59.6093Z" stroke="white" stroke-width="5" stroke-linecap="round" stroke-linejoin="round"/>
</svg>
